<?xml version="1.0" encoding="utf-8"?>
<!-- Generator: Adobe Illustrator 26.3.1, SVG Export Plug-In . SVG Version: 6.00 Build 0)  -->
<svg version="1.1" id="Layer_1" xmlns="http://www.w3.org/2000/svg" xmlns:xlink="http://www.w3.org/1999/xlink" x="0px" y="0px"
	 viewBox="0 0 96 96" style="enable-background:new 0 0 96 96;" xml:space="preserve">
<style type="text/css">
	.st0{fill:#FFFFFF;}
	.st1{fill:#213140;}
</style>
<g id="XMLID_00000040548859485145476400000009725475892290342277_">
	<g>
		<path class="st0" d="M78,13.5v69c0,0.9-0.5,1.7-1.2,2.2c-0.8,0.4-1.7,0.4-2.5,0L49.1,70.3C45.3,68.1,41,67,36.7,67H26
			c-2.1,0-4.1-0.8-5.6-2.3C18.9,63.2,18,61.1,18,59V37c0-2.1,0.8-4.2,2.3-5.7c1.5-1.5,3.5-2.3,5.6-2.3h10.6c4.3,0,8.6-1.1,12.4-3.3
			l25.2-14.4c0.8-0.4,1.7-0.4,2.5,0C77.5,11.8,78,12.6,78,13.5z"/>
		<path class="st1" d="M84,13.5v69c0,3-1.6,5.8-4.2,7.3c-2.6,1.5-5.8,1.5-8.5,0L46.1,75.5C43.2,73.8,40,73,36.7,73H26
			c-3.7,0-7.3-1.5-9.9-4.1C13.5,66.3,12,62.7,12,59V37c0-3.7,1.5-7.3,4.1-9.9c2.6-2.6,6.2-4.1,9.9-4.1h10.6c3.3,0,6.6-0.9,9.4-2.5
			L71.3,6.1c2.6-1.5,5.9-1.5,8.5,0S84,10.5,84,13.5z M78,82.5v-69c0-0.9-0.5-1.7-1.2-2.2c-0.8-0.4-1.7-0.4-2.5,0L49.1,25.7
			C45.3,27.9,41,29,36.7,29H26c-2.1,0-4.1,0.9-5.6,2.3C18.9,32.8,18,34.9,18,37v22c0,2.1,0.8,4.2,2.3,5.7c1.5,1.5,3.5,2.3,5.6,2.3
			h10.6c4.3,0,8.6,1.1,12.4,3.3l25.2,14.4c0.8,0.4,1.7,0.4,2.5,0C77.5,84.2,78,83.4,78,82.5z"/>
	</g>
	<g>
	</g>
</g>
</svg>
